<svg width="53" height="54" viewBox="0 0 53 54" fill="none" xmlns="http://www.w3.org/2000/svg">
<path d="M23.6667 19.7917V35.2917M28.8323 35.2917L28.8332 19.7917M36.5833 50.7917C26.25 47.5033 5.58333 40.1372 5.58333 36.9802C5.58333 33.338 20.2534 36.4188 25.2224 38.4665C25.8786 38.7369 26.6214 38.7369 27.2776 38.4665C32.2466 36.4188 46.9167 33.338 46.9167 36.9802C46.9167 40.1372 26.25 47.5033 15.9167 50.7917M3 27.5417C15.4 27.5417 18.5 19.8939 21.6 18.3593C24.7 16.8247 27.8 16.8245 30.9 18.3597C34 19.8949 37.1 27.5417 49.5 27.5417M29.4792 6.22917C29.4792 8.01259 28.0334 9.45833 26.25 9.45833C24.4666 9.45833 23.0208 8.01259 23.0208 6.22917C23.0208 4.44575 24.4666 3 26.25 3C28.0334 3 29.4792 4.44575 29.4792 6.22917Z" stroke="#DEDBF4" stroke-width="6" stroke-linecap="round" stroke-linejoin="round"/>
</svg>
