<svg width="55" height="55" viewBox="0 0 55 55" fill="none" xmlns="http://www.w3.org/2000/svg">
<path fill-rule="evenodd" clip-rule="evenodd" d="M52.6849 2.33237C51.9129 1.5591 50.9917 0.953609 49.9781 0.553304C48.9649 0.152998 47.881 -0.033624 46.7932 0.00496674C45.7061 0.0347503 44.6368 0.288669 43.6507 0.751066C42.6646 1.21346 41.7834 1.87453 41.0606 2.69352L20.1643 26.0788C22.0169 26.8948 23.703 28.0495 25.1351 29.4851C26.7005 31.0543 27.9296 32.9263 28.747 34.9867C28.7891 35.0927 28.83 35.1992 28.8699 35.306L52.3266 14.0496C53.1343 13.3257 53.7873 12.4436 54.2461 11.4571C54.7046 10.4706 54.9592 9.40028 54.9937 8.31139C55.0377 7.20827 54.8554 6.10795 54.4579 5.07917C54.0607 4.05039 53.4573 3.11531 52.6849 2.33237ZM21.1827 49.496L21.2536 49.4249C15.6973 54.945 6.63054 57.037 0.654823 52.5977C-0.197376 51.9644 -0.177669 50.7426 0.481977 49.9109C3.36677 46.273 3.098 43.5022 2.84891 40.9344C2.60612 38.4315 2.38203 36.1212 5.11469 33.3886C6.1494 32.236 7.40832 31.3065 8.81444 30.6568C10.2206 30.0072 11.7444 29.6512 13.2929 29.6104C14.8413 29.5696 16.3817 29.8451 17.8201 30.4198C19.2584 30.9946 20.5645 31.8566 21.6585 32.9532C22.7524 34.0498 23.6112 35.358 24.1825 36.7977C24.7537 38.2375 25.0253 39.7787 24.9808 41.3269C24.9363 42.8752 24.5765 44.3983 23.9234 45.8028C23.2704 47.2072 22.3378 48.464 21.1827 49.496Z" fill="#DEDBF4"/>
</svg>
