<svg width="66" height="65" viewBox="0 0 66 65" fill="none" xmlns="http://www.w3.org/2000/svg">
<path d="M43.8423 27.2458H21.2297C18.0304 27.2458 16.9187 25.1062 18.7895 22.5062L30.0958 6.68958C31.4244 4.79374 33.6477 4.79374 34.9762 6.68958L46.2825 22.5062C48.1533 25.1062 47.0417 27.2458 43.8423 27.2458Z" fill="#DEDBF4"/>
<path d="M47.6924 48.75H17.3797C13.0957 48.75 11.6316 45.9063 14.1532 42.4396L24.9714 27.2458H40.1007L50.9189 42.4396C53.4405 45.9063 51.9764 48.75 47.6924 48.75Z" fill="#DEDBF4"/>
<path d="M34.5697 48.75V59.5833C34.5697 60.6937 33.6478 61.6146 32.5362 61.6146C31.4245 61.6146 30.5027 60.6937 30.5027 59.5833V48.75H34.5697Z" fill="#DEDBF4"/>
</svg>
