<svg width="50" height="55" viewBox="0 0 50 55" fill="none" xmlns="http://www.w3.org/2000/svg">
<path fill-rule="evenodd" clip-rule="evenodd" d="M30.7792 12.3137C33.2877 4.6101 38.9805 0 45.626 0C47.3519 0 48.751 1.39911 48.751 3.125C48.751 4.85089 47.3519 6.25 45.626 6.25C42.2716 6.25 38.5892 8.5149 36.7221 14.2488C34.8321 20.0532 34.9444 29.2791 39.7948 42.0126C40.4091 43.6255 39.5997 45.431 37.9868 46.0453C36.374 46.6597 34.5685 45.8502 33.9541 44.2374C31.4954 37.7825 30.0941 31.953 29.5717 26.7923C28.849 26.5604 28.4609 26.6334 28.259 26.6881C27.7796 26.8181 27.3818 27.1033 26.3691 27.8397C26.3485 27.8547 26.3272 27.8701 26.3054 27.886C25.9545 28.1418 25.4569 28.5043 24.8331 28.8309L33.8872 48.75H36.875C38.6009 48.75 40 50.1491 40 51.875C40 53.6009 38.6009 55 36.875 55H31.875C30.6496 55 29.5372 54.2837 29.0301 53.1681L18.0669 29.0491C15.4692 33.2793 12.9246 40.3747 11.2186 52.3167C10.9987 53.8562 9.68021 54.9997 8.12509 54.9998L3.12509 54.9999C1.3992 55 4.94732e-05 53.6009 1.31197e-09 51.875C-4.94705e-05 50.1491 1.39902 48.75 3.12491 48.7499L5.44037 48.7499C8.03101 32.7986 12.3621 24.3766 17.5389 20.0925C21.9808 16.4165 26.7061 16.1581 29.8251 16.2057C30.0624 14.8295 30.3827 13.5316 30.7792 12.3137ZM37.5 22.5C37.5 19.0482 40.2982 16.25 43.75 16.25C47.2018 16.25 50 19.0482 50 22.5C50 25.9518 47.2018 28.75 43.75 28.75C40.2982 28.75 37.5 25.9518 37.5 22.5Z" fill="#DEDBF4"/>
</svg>
