<svg width="68" height="68" viewBox="0 0 68 68" fill="none" xmlns="http://www.w3.org/2000/svg">
<g clip-path="url(#clip0_105_1608)">
<path d="M36.8333 62.3333V65.1667C36.8333 66.7335 35.564 68 34 68C32.436 68 31.1667 66.7335 31.1667 65.1667V62.3333C31.1667 60.7665 32.436 59.5 34 59.5C35.564 59.5 36.8333 60.7665 36.8333 62.3333ZM34 8.5C35.564 8.5 36.8333 7.23067 36.8333 5.66667V2.83333C36.8333 1.26933 35.564 0 34 0C32.436 0 31.1667 1.26933 31.1667 2.83333V5.66667C31.1667 7.23067 32.436 8.5 34 8.5ZM65.1667 31.1667H62.3333C60.7665 31.1667 59.5 32.436 59.5 34C59.5 35.564 60.7665 36.8333 62.3333 36.8333H65.1667C66.7335 36.8333 68 35.564 68 34C68 32.436 66.7335 31.1667 65.1667 31.1667ZM5.66667 31.1667H2.83333C1.26933 31.1667 0 32.436 0 34C0 35.564 1.26933 36.8333 2.83333 36.8333H5.66667C7.23067 36.8333 8.5 35.564 8.5 34C8.5 32.436 7.23067 31.1667 5.66667 31.1667ZM11.9623 52.0313L9.95917 54.0345C8.85133 55.1423 8.85133 56.933 9.95917 58.0408C11.067 59.1487 12.8577 59.1487 13.9655 58.0408L15.9687 56.0377C17.0765 54.9298 17.0765 53.1392 15.9687 52.0313C14.8608 50.9235 13.0702 50.9235 11.9623 52.0313ZM54.0345 9.95917L52.0313 11.9623C50.9235 13.0702 50.9235 14.8608 52.0313 15.9687C53.1392 17.0765 54.9298 17.0765 56.0377 15.9687L58.0408 13.9655C59.1487 12.8577 59.1487 11.067 58.0408 9.95917C56.933 8.85133 55.1423 8.85133 54.0345 9.95917ZM56.0377 52.0342C54.9298 50.9263 53.1392 50.9263 52.0313 52.0342C50.9235 53.142 50.9235 54.9327 52.0313 56.0405L54.0345 58.0437C55.1423 59.1515 56.933 59.1515 58.0408 58.0437C59.1487 56.9358 59.1487 55.1452 58.0408 54.0373L56.0377 52.0342ZM11.9623 15.9687C13.0702 17.0765 14.8608 17.0765 15.9687 15.9687C17.0765 14.8608 17.0765 13.0702 15.9687 11.9623L13.9655 9.95917C12.8577 8.85133 11.067 8.85133 9.95917 9.95917C8.85133 11.067 8.85133 12.8577 9.95917 13.9655L11.9623 15.9687ZM53.8333 34C53.8333 44.9338 44.9338 53.8333 34 53.8333C23.0662 53.8333 14.1667 44.9338 14.1667 34C14.1667 23.0662 23.0633 14.1667 34 14.1667C44.9367 14.1667 53.8333 23.0633 53.8333 34ZM48.1667 34C48.1667 26.1885 41.8115 19.8333 34 19.8333V48.1667C41.8115 48.1667 48.1667 41.8115 48.1667 34Z" fill="#DEDBF4"/>
</g>
<defs>
<clipPath id="clip0_105_1608">
<rect width="68" height="68" fill="white"/>
</clipPath>
</defs>
</svg>
