<svg width="108" height="123" viewBox="0 0 108 123" fill="none" xmlns="http://www.w3.org/2000/svg">
<path d="M108 0L98.1609 110.687L53.9339 123L9.82865 110.704L0 0H108Z" fill="#264DE4"/>
<path d="M89.7376 103.639L98.1457 9.05176H54V113.589L89.7376 103.639Z" fill="#2965F1"/>
<path d="M22.5322 50.1104L23.744 63.6877H54.0002V50.1104H22.5322Z" fill="white"/>
<path d="M54.0001 22.6294H53.9534H20.0972L21.3262 36.207H54.0001V22.6294Z" fill="white"/>
<path d="M53.9998 99.4987V85.3724L53.9405 85.3883L38.8827 81.3052L37.9201 70.4766H30.6032H24.3477L26.2419 91.7951L53.9375 99.516L53.9998 99.4987Z" fill="white"/>
<path d="M70.6021 63.6878L69.0327 81.2967L53.9531 85.384V99.5096L81.6708 91.7953L81.8742 89.5014L85.0513 53.7564L85.3812 50.1105L87.8221 22.6294H53.9531V36.207H73.0048L71.7746 50.1105H53.9531V63.6878H70.6021Z" fill="white"/>
</svg>
