<svg width="124" height="124" viewBox="0 0 124 124" fill="none" xmlns="http://www.w3.org/2000/svg">
<path d="M45.8334 112.5C55.0334 112.5 62.5001 105.034 62.5001 95.8336V79.167H45.8334C36.6334 79.167 29.1667 86.6336 29.1667 95.8336C29.1667 105.034 36.6334 112.5 45.8334 112.5Z" fill="#0ACF83"/>
<path d="M29.1667 62.4996C29.1667 53.2997 36.6334 45.833 45.8334 45.833H62.5001V79.1663H45.8334C36.6334 79.1663 29.1667 71.6996 29.1667 62.4996Z" fill="#A259FF"/>
<path d="M29.1667 29.1667C29.1667 19.9667 36.6334 12.5 45.8334 12.5H62.5001V45.8333H45.8334C36.6334 45.8333 29.1667 38.3667 29.1667 29.1667Z" fill="#F24E1E"/>
<path d="M62.5 12.5H79.1667C88.3667 12.5 95.8334 19.9667 95.8334 29.1667C95.8334 38.3667 88.3667 45.8333 79.1667 45.8333H62.5V12.5Z" fill="#FF7262"/>
<path d="M95.8334 62.4996C95.8334 71.6996 88.3667 79.1663 79.1667 79.1663C69.9667 79.1663 62.5 71.6996 62.5 62.4996C62.5 53.2997 69.9667 45.833 79.1667 45.833C88.3667 45.833 95.8334 53.2997 95.8334 62.4996Z" fill="#1ABCFE"/>
</svg>
