<svg width="124" height="124" viewBox="0 0 124 124" fill="none" xmlns="http://www.w3.org/2000/svg">
<path d="M121.181 56.5207L67.4775 2.81963C64.3866 -0.273208 59.3705 -0.273208 56.2758 2.81963L45.1241 13.9715L59.2706 28.1182C62.5579 27.0074 66.3277 27.7526 68.9482 30.3731C71.5812 33.0104 72.3211 36.8125 71.1833 40.1105L84.8167 53.7445C88.1151 52.6082 91.9209 53.3433 94.5553 55.9821C98.2371 59.6625 98.2371 65.6277 94.5553 69.3105C90.8725 72.9939 84.9075 72.9939 81.2227 69.3105C78.4533 66.5382 77.7691 62.4709 79.1711 59.0591L66.4569 46.3447L66.4555 79.8037C67.3772 80.2594 68.219 80.8614 68.9482 81.5863C72.63 85.2667 72.63 91.2323 68.9482 94.9181C65.2654 98.5995 59.2975 98.5995 55.62 94.9181C51.9381 91.2323 51.9381 85.2672 55.62 81.5867C56.5023 80.7039 57.5509 80.0048 58.7051 79.5298V45.759C57.5492 45.2871 56.5 44.5876 55.62 43.702C52.8304 40.9162 52.1596 36.823 53.589 33.3977L39.6439 19.4509L2.82067 56.2723C-0.273556 59.368 -0.273556 64.3847 2.82067 67.478L56.5247 121.18C59.6165 124.273 64.6316 124.273 67.7273 121.18L121.18 67.7274C124.273 64.6331 124.274 59.6135 121.181 56.5207Z" fill="#DE4C36"/>
</svg>
