<svg width="123" height="123" viewBox="0 0 123 123" fill="none" xmlns="http://www.w3.org/2000/svg">
<path d="M112 12H12V112H112V12Z" fill="#F7DF1E"/>
<path d="M79.1745 90.1254C81.1888 93.4143 83.8094 95.8318 88.4444 95.8318C92.338 95.8318 94.8253 93.8857 94.8253 91.1969C94.8253 87.9746 92.2698 86.8334 87.9841 84.9588L85.6348 83.9508C78.8539 81.0619 74.3491 77.4429 74.3491 69.7921C74.3491 62.7445 79.719 57.3794 88.111 57.3794C94.0856 57.3794 98.3809 59.4588 101.476 64.9032L94.1586 69.6016C92.5475 66.7127 90.8094 65.5746 88.111 65.5746C85.3587 65.5746 83.6142 67.3207 83.6142 69.6016C83.6142 72.4207 85.3602 73.5619 89.392 75.308L91.7412 76.3143C99.7253 79.7381 104.233 83.2286 104.233 91.0762C104.233 99.5365 97.5872 104.171 88.6618 104.171C79.9348 104.171 74.2967 100.013 71.538 94.5619L79.1745 90.1254ZM45.9793 90.9397C47.4555 93.5588 48.7983 95.773 52.0269 95.773C55.1142 95.773 57.0618 94.5651 57.0618 89.8683V57.9159H66.4586V89.9953C66.4586 99.7254 60.7539 104.154 52.4269 104.154C44.9031 104.154 40.546 100.26 38.3301 95.5707L45.9793 90.9397Z" fill="#322F49"/>
</svg>
