<svg width="124" height="122" viewBox="0 0 124 122" fill="none" xmlns="http://www.w3.org/2000/svg">
<path d="M113.796 94.3588C107.104 94.1902 101.917 94.8665 97.5667 96.7258C96.3117 97.2326 94.3038 97.2331 94.1364 98.8393C94.8058 99.5156 94.8894 100.615 95.4751 101.544C96.48 103.234 98.2355 105.517 99.8252 106.701C101.582 108.053 103.339 109.405 105.179 110.589C108.442 112.618 112.123 113.801 115.302 115.83C117.143 117.012 118.982 118.535 120.823 119.802C121.743 120.478 122.328 121.578 123.5 122V121.747C122.914 120.986 122.747 119.887 122.161 119.042C121.326 118.196 120.488 117.435 119.651 116.59C117.226 113.294 114.214 110.42 110.952 108.053C108.275 106.193 102.418 103.658 101.331 100.53C101.331 100.53 101.247 100.446 101.164 100.361C103.004 100.192 105.179 99.5156 106.936 99.0084C109.78 98.247 112.374 98.4166 115.302 97.6558C116.64 97.3176 117.979 96.8949 119.317 96.4722V95.7119C117.812 94.1902 116.724 92.1617 115.134 90.7246C110.868 87.0044 106.183 83.3702 101.331 80.3273C98.7375 78.6365 95.3909 77.5375 92.6305 76.1008C91.6274 75.5931 89.9537 75.34 89.3685 74.4946C87.862 72.6352 87.0254 70.1841 85.9382 67.9861C83.5129 63.3365 81.1698 58.1806 79.0782 53.2783C77.5732 49.9813 76.6528 46.6843 74.8122 43.6418C66.1957 29.2717 56.8261 20.5652 42.4377 12.0273C39.3421 10.2525 35.6613 9.49162 31.7295 8.56218C29.6388 8.47715 27.5467 8.30856 25.4556 8.22354C24.1169 7.63177 22.7783 6.02602 21.607 5.26517C16.8395 2.22177 4.54123 -4.37079 1.02778 4.33573C-1.23118 9.82977 4.37438 15.2393 6.29772 18.0295C7.72099 19.9734 9.56066 22.171 10.5646 24.369C11.1503 25.8052 11.3171 27.3278 11.9028 28.849C13.2419 32.5673 14.4959 36.7102 16.2534 40.1763C17.1737 41.9511 18.1772 43.8104 19.3485 45.4167C20.0178 46.3461 21.1887 46.7693 21.4401 48.2905C20.2693 49.9813 20.1852 52.5174 19.5154 54.6304C16.5039 64.1823 17.6757 76.0163 21.9416 83.032C23.2798 85.1445 26.4591 89.7951 30.7255 88.0193C34.4904 86.4981 33.6538 81.6799 34.7405 77.4534C34.9924 76.438 34.8251 75.7627 35.3266 75.0864V75.2559C36.4979 77.622 37.6688 79.9051 38.7564 82.2717C41.35 86.4131 45.867 90.7246 49.6314 93.5989C51.6399 95.1196 53.229 97.7403 55.739 98.6702V98.4161H55.5712C55.0692 97.6553 54.3162 97.3176 53.6473 96.7253C52.1419 95.2046 50.4681 93.3448 49.2972 91.654C45.7843 86.9198 42.6882 81.6794 39.9277 76.2694C38.5896 73.6497 37.4178 70.7754 36.3306 68.1552C35.8281 67.1397 35.8281 65.619 34.992 65.1123C33.737 66.9716 31.8968 68.5779 30.9765 70.8599C29.3878 74.4946 29.22 78.9747 28.6344 83.6233C28.2997 83.7088 28.4666 83.6233 28.2992 83.7934C25.6229 83.1161 24.7026 80.3273 23.6981 77.9602C21.1882 71.9589 20.7699 62.3225 22.9456 55.3913C23.5313 53.616 26.0412 48.0374 25.0373 46.3466C24.5353 44.7404 22.8615 43.8104 21.9416 42.5429C20.8545 40.9366 19.6827 38.9087 18.9302 37.1329C16.9222 32.3992 15.9182 27.1583 13.7434 22.4246C12.7394 20.2266 10.9834 17.945 9.56066 15.9161C7.9715 13.634 6.21453 12.0273 4.95956 9.32254C4.54171 8.3931 3.95558 6.8714 4.6249 5.85694C4.79223 5.18063 5.12641 4.9275 5.79621 4.75842C6.88385 3.82801 9.97946 5.01155 11.0661 5.51878C14.1618 6.78589 16.7549 7.97041 19.3485 9.74523C20.5193 10.5906 21.7743 12.1969 23.2798 12.6195H25.0368C27.7141 13.2108 30.725 12.7886 33.235 13.549C37.6692 14.9857 41.6842 17.0991 45.2818 19.3817C56.241 26.3974 65.2749 36.372 71.3824 48.2905C72.3864 50.2339 72.8043 52.0102 73.7246 54.0382C75.482 58.1806 77.6568 62.407 79.4128 66.4644C81.1698 70.4367 82.8426 74.4946 85.3526 77.7916C86.6075 79.5659 91.6265 80.4964 93.8854 81.4263C95.5587 82.1866 98.1524 82.8634 99.6579 83.7929C102.502 85.5672 105.346 87.5971 108.023 89.5405C109.362 90.555 113.544 92.6685 113.796 94.3588Z" fill="#15B3DE"/>
<path d="M28.4659 20.9023C27.0441 20.9023 26.0406 21.0724 25.0366 21.3255V21.4946H25.204C25.8738 22.8472 27.0441 23.7771 27.8803 24.9602C28.5501 26.3123 29.1352 27.6654 29.805 29.0181C29.8882 28.933 29.9719 28.849 29.9719 28.849C31.1437 28.0031 31.7289 26.651 31.7289 24.622C31.2269 24.0308 31.1432 23.439 30.7249 22.8472C30.2234 22.0013 29.1352 21.5791 28.4659 20.9023Z" fill="#15B3DE"/>
</svg>
