<svg width="122" height="123" viewBox="0 0 122 123" fill="none" xmlns="http://www.w3.org/2000/svg">
<path d="M61 72.3442C66.9697 72.3442 71.8091 67.4892 71.8091 61.5002C71.8091 55.5113 66.9697 50.6562 61 50.6562C55.0303 50.6562 50.1909 55.5113 50.1909 61.5002C50.1909 67.4892 55.0303 72.3442 61 72.3442Z" fill="#61DAFB"/>
<path d="M61 83.717C93.0325 83.717 119 73.7702 119 61.5001C119 49.23 93.0325 39.2832 61 39.2832C28.9675 39.2832 3 49.23 3 61.5001C3 73.7702 28.9675 83.717 61 83.717Z" stroke="#61DAFB" stroke-width="5"/>
<path d="M41.8214 72.6084C57.8377 100.439 79.4079 118.027 89.9999 111.892C100.592 105.756 96.1947 78.222 80.1785 50.3915C64.1622 22.5611 42.5919 4.97342 31.9999 11.1085C21.4079 17.2435 25.8052 44.778 41.8214 72.6084Z" stroke="#61DAFB" stroke-width="5"/>
<path d="M41.8214 50.3914C25.8052 78.2219 21.4079 105.756 31.9999 111.891C42.5919 118.026 64.1622 100.439 80.1785 72.6083C96.1947 44.7779 100.592 17.2434 89.9999 11.1083C79.4079 4.97332 57.8377 22.5609 41.8214 50.3914Z" stroke="#61DAFB" stroke-width="5"/>
</svg>
