<svg width="123" height="123" viewBox="0 0 123 123" fill="none" xmlns="http://www.w3.org/2000/svg">
<path d="M12 12H112V112H12V12Z" fill="#017ACB"/>
<path d="M60.0157 49.0312H64.8126V57.3125H51.8438V94.1562L51.5 94.25C51.0313 94.375 44.8594 94.375 43.5313 94.2344L42.4688 94.1406V57.3125H29.5V49.0312L33.6094 48.9844C35.8594 48.9531 41.6406 48.9531 46.4532 48.9844C51.2657 49.0156 57.3594 49.0312 60.0157 49.0312ZM96.6251 90.25C94.7189 92.2656 92.672 93.3906 89.2657 94.3125C87.7813 94.7187 87.5313 94.7344 84.1876 94.7188C80.8438 94.7031 80.5782 94.7031 78.9532 94.2812C74.7501 93.2031 71.3594 91.0937 69.0469 88.1094C68.3907 87.2656 67.3126 85.5156 67.3126 85.2969C67.3126 85.2344 67.4688 85.0937 67.6719 85C67.8751 84.9062 68.2969 84.6406 68.6407 84.4375C68.9844 84.2344 69.6094 83.8594 70.0313 83.6406C70.4532 83.4219 71.6719 82.7031 72.7345 82.0625C73.797 81.4219 74.7657 80.9062 74.8751 80.9062C74.9845 80.9062 75.1876 81.125 75.3438 81.3906C76.2813 82.9687 78.4688 84.9844 80.0157 85.6719C80.9688 86.0781 83.0782 86.5312 84.0938 86.5312C85.0313 86.5312 86.7501 86.125 87.672 85.7031C88.6563 85.25 89.1564 84.7969 89.7501 83.8906C90.1564 83.25 90.2032 83.0781 90.1876 81.8594C90.1876 80.7344 90.1251 80.4219 89.8126 79.9062C88.9376 78.4687 87.7501 77.7187 82.9376 75.5937C77.9688 73.3906 75.7345 72.0781 73.9219 70.3125C72.5782 69 72.3126 68.6406 71.4688 67C70.3751 64.8906 70.2344 64.2031 70.2188 61.0625C70.2032 58.8594 70.2501 58.1406 70.4844 57.3906C70.8126 56.2656 71.8751 54.0937 72.3594 53.5469C73.3594 52.375 73.7188 52.0156 74.422 51.4375C76.547 49.6875 79.8595 48.5312 83.0313 48.4219C83.3907 48.4219 84.5782 48.4844 85.6876 48.5625C88.8751 48.8281 91.047 49.6094 93.1407 51.2812C94.7189 52.5312 97.1095 55.4688 96.8751 55.8594C96.7189 56.0938 90.4845 60.25 90.0782 60.375C89.8282 60.4531 89.6564 60.3594 89.3126 59.9531C87.1876 57.4062 86.3282 56.8594 84.2657 56.7344C82.797 56.6406 82.0157 56.8125 81.0313 57.4687C80.0001 58.1562 79.5001 59.2031 79.5001 60.6562C79.5157 62.7812 80.3282 63.7812 83.3282 65.2656C85.2657 66.2187 86.922 67 87.047 67C87.2345 67 91.2501 69 92.297 69.625C97.172 72.4844 99.1564 75.4219 99.672 80.4844C100.047 84.2969 98.9689 87.7812 96.6251 90.25Z" fill="white"/>
</svg>
