<svg width="131" height="130" viewBox="0 0 131 130" fill="none" xmlns="http://www.w3.org/2000/svg">
<path d="M70.373 24.0931L90.3071 35.7336C91.0238 36.1422 91.0499 37.2761 90.3071 37.6847L66.6207 51.5268C65.904 51.9488 65.0573 51.9224 64.3927 51.5268L40.7062 37.6847C39.9766 37.2893 39.9637 36.129 40.7062 35.7336L60.6274 24.0931V1.2998L9.7627 31.0141V90.443L29.2669 79.0529V55.7718C29.2539 54.9412 30.218 54.348 30.9346 54.7961L54.6212 68.6382C55.3378 69.0602 55.7417 69.8116 55.7417 70.5895V98.2604C55.7546 99.091 54.7904 99.6842 54.0738 99.2358L34.1397 87.5954L14.6355 98.9855L65.5002 128.7L116.365 98.9855L96.8607 87.5954L76.9266 99.2358C76.223 99.671 75.2329 99.1042 75.2587 98.2604V70.5895C75.2587 69.7589 75.7148 69.0206 76.3792 68.6382L100.066 54.7961C100.769 54.3612 101.759 54.9148 101.734 55.7718V79.0529L121.238 90.443V31.0141L70.373 1.2998V24.0931Z" fill="#DEDBF4"/>
</svg>
