<svg width="80" height="77" viewBox="0 0 80 77" fill="none" xmlns="http://www.w3.org/2000/svg">
<path d="M40.0002 0C17.9115 0 0 17.6731 0 39.4746C0 56.9158 11.4612 71.7125 27.3546 76.9322C29.3536 77.2975 30.0877 76.0759 30.0877 75.0332C30.0877 74.092 30.0504 70.9821 30.0334 67.6837C18.9051 70.0716 16.5569 63.0262 16.5569 63.0262C14.7374 58.4635 12.1157 57.2505 12.1157 57.2505C8.4866 54.8004 12.3892 54.8505 12.3892 54.8505C16.406 55.1291 18.5211 58.9186 18.5211 58.9186C22.0886 64.9534 27.8785 63.2086 30.1611 62.2002C30.52 59.6486 31.5568 57.9074 32.7006 56.9217C23.8163 55.9232 14.4764 52.5385 14.4764 37.413C14.4764 33.1035 16.039 29.5819 18.5979 26.8175C18.1826 25.8231 16.8135 21.8083 18.9854 16.3709C18.9854 16.3709 22.3443 15.31 29.9883 20.4173C33.1788 19.5424 36.6007 19.104 40.0002 19.0892C43.3996 19.104 46.8241 19.5424 50.0208 20.4173C57.6557 15.31 61.0099 16.3709 61.0099 16.3709C63.1871 21.8083 61.8174 25.8231 61.4021 26.8175C63.9667 29.5819 65.5186 33.1032 65.5186 37.413C65.5186 52.5744 56.1612 55.913 47.2542 56.8901C48.6888 58.1152 49.9672 60.5176 49.9672 64.2002C49.9672 69.4819 49.9207 73.7329 49.9207 75.0332C49.9207 76.0836 50.6407 77.3145 52.6686 76.9269C68.5532 71.7013 80 56.9099 80 39.4746C80 17.6731 62.091 0 40.0002 0Z" fill="white"/>
<path d="M14.9813 56.2326C14.8934 56.4285 14.5803 56.4873 14.2958 56.353C14.0056 56.2242 13.8425 55.9567 13.9366 55.7598C14.0229 55.558 14.336 55.5016 14.6255 55.6372C14.9163 55.7657 15.082 56.0357 14.9813 56.2326V56.2326ZM16.9489 57.965C16.7581 58.1396 16.3851 58.0585 16.132 57.7827C15.8703 57.5075 15.8214 57.1397 16.015 56.9623C16.2117 56.788 16.5734 56.8694 16.8356 57.1449C17.0973 57.4232 17.1481 57.7889 16.9486 57.9653L16.9489 57.965ZM18.2988 60.1817C18.0535 60.3498 17.6525 60.1922 17.405 59.8412C17.16 59.4904 17.16 59.0694 17.4104 58.9006C17.6588 58.7319 18.0535 58.8836 18.3044 59.2319C18.5491 59.5889 18.5491 60.0099 18.2985 60.182L18.2988 60.1817ZM20.5814 62.7492C20.3621 62.9876 19.8953 62.9238 19.5533 62.5981C19.2039 62.2798 19.1063 61.8281 19.3262 61.5894C19.548 61.3504 20.0176 61.4176 20.3621 61.7405C20.7094 62.0582 20.8154 62.5133 20.5817 62.7492H20.5814ZM23.5316 63.616C23.4353 63.925 22.9854 64.0656 22.5324 63.9343C22.08 63.799 21.7839 63.4368 21.8752 63.1244C21.9693 62.8133 22.421 62.6668 22.8775 62.8074C23.3292 62.942 23.626 63.3015 23.5319 63.616H23.5316ZM26.8896 63.9835C26.9009 64.3092 26.5166 64.5792 26.041 64.5851C25.5626 64.5953 25.1757 64.3318 25.1707 64.0117C25.1707 63.6829 25.5462 63.4154 26.0243 63.4077C26.4999 63.3984 26.8896 63.66 26.8896 63.9835V63.9835ZM30.188 63.8588C30.2451 64.1764 29.9144 64.5027 29.4423 64.5894C28.978 64.673 28.5482 64.477 28.4889 64.1622C28.4312 63.8365 28.7681 63.5105 29.2315 63.4259C29.7045 63.3448 30.1277 63.5358 30.188 63.8588" fill="white"/>
</svg>
