<svg width="14" height="14" viewBox="0 0 14 14" fill="none" xmlns="http://www.w3.org/2000/svg">
<path fill-rule="evenodd" clip-rule="evenodd" d="M6.775 2.275C6.64252 2.41717 6.57039 2.60522 6.57382 2.79952C6.57725 2.99382 6.65596 3.1792 6.79337 3.31662C6.93079 3.45403 7.11617 3.53274 7.31047 3.53617C7.50477 3.5396 7.69282 3.46748 7.835 3.335L9.085 2.085C9.2708 1.89918 9.4914 1.75177 9.7342 1.65121C9.977 1.55064 10.2372 1.49888 10.5 1.49888C10.7628 1.49888 11.023 1.55064 11.2658 1.65121C11.5086 1.75177 11.7292 1.89918 11.915 2.085C12.1008 2.27082 12.2482 2.49142 12.3488 2.7342C12.4493 2.97699 12.5011 3.23721 12.5011 3.5C12.5011 3.76279 12.4493 4.023 12.3488 4.26579C12.2482 4.50857 12.1008 4.72917 11.915 4.915L9.415 7.415C9.2292 7.60095 9.0087 7.74847 8.76588 7.84911C8.52308 7.94976 8.26283 8.00157 8 8.00157C7.73716 8.00157 7.47691 7.94976 7.23411 7.84911C6.99132 7.74847 6.77074 7.60095 6.585 7.415C6.44282 7.28252 6.25477 7.21039 6.06047 7.21382C5.86617 7.21725 5.68079 7.29596 5.54337 7.43337C5.40596 7.57079 5.32725 7.75617 5.32382 7.95047C5.32039 8.14477 5.39252 8.33282 5.525 8.475C5.85001 8.80004 6.23586 9.0579 6.66052 9.2338C7.08518 9.4097 7.54034 9.5002 8 9.5002C8.45965 9.5002 8.91481 9.4097 9.3395 9.2338C9.7641 9.0579 10.15 8.80004 10.475 8.475L12.975 5.975C13.6314 5.31858 14.0002 4.4283 14.0002 3.5C14.0002 2.57169 13.6314 1.68141 12.975 1.025C12.3186 0.36858 11.4283 -0.000183105 10.5 -0.000183105C9.5717 -0.000183105 8.68141 0.36858 8.02499 1.025L6.775 2.275ZM2.085 11.915C1.89904 11.7292 1.75152 11.5087 1.65088 11.2659C1.55023 11.0231 1.49842 10.7628 1.49842 10.5C1.49842 10.2372 1.55023 9.9769 1.65088 9.7341C1.75152 9.4913 1.89904 9.2707 2.085 9.085L4.585 6.585C4.77074 6.39904 4.99132 6.25152 5.23411 6.15088C5.47691 6.05023 5.73716 5.99842 6 5.99842C6.26283 5.99842 6.52308 6.05023 6.76588 6.15088C7.00867 6.25152 7.22925 6.39904 7.415 6.585C7.55717 6.71748 7.74522 6.7896 7.93952 6.78617C8.13382 6.78274 8.3192 6.70403 8.45662 6.56662C8.59403 6.4292 8.67274 6.24382 8.67617 6.04952C8.6796 5.85522 8.60748 5.66717 8.475 5.525C8.14999 5.19995 7.76413 4.94211 7.33947 4.7662C6.91481 4.59029 6.45965 4.49974 6 4.49974C5.54034 4.49974 5.08518 4.59029 4.66052 4.7662C4.23586 4.94211 3.85001 5.19995 3.525 5.525L1.025 8.02499C0.36858 8.68141 -0.000183105 9.5717 -0.000183105 10.5C-0.000183105 11.4283 0.36858 12.3186 1.025 12.975C1.68141 13.6314 2.57169 14.0002 3.5 14.0002C4.4283 14.0002 5.31858 13.6314 5.975 12.975L7.225 11.725C7.35748 11.5828 7.4296 11.3948 7.42617 11.2005C7.42274 11.0062 7.34403 10.8208 7.20662 10.6834C7.0692 10.546 6.88382 10.4672 6.68952 10.4638C6.49522 10.4604 6.30717 10.5325 6.165 10.665L4.915 11.915C4.72925 12.1009 4.50867 12.2485 4.26588 12.3491C4.02308 12.4498 3.76283 12.5016 3.5 12.5016C3.23716 12.5016 2.97691 12.4498 2.73411 12.3491C2.49132 12.2485 2.27074 12.1009 2.085 11.915Z" fill="#24292E"/>
</svg>
