<svg width="78" height="77" viewBox="0 0 78 77" fill="none" xmlns="http://www.w3.org/2000/svg">
<path d="M72.2421 0H5.75792C4.23082 0 2.76627 0.598859 1.68646 1.66483C0.606637 2.73081 0 4.17658 0 5.6841V71.3159C0 72.8234 0.606637 74.2692 1.68646 75.3352C2.76627 76.4011 4.23082 77 5.75792 77H72.2421C73.7692 77 75.2337 76.4011 76.3136 75.3352C77.3934 74.2692 78 72.8234 78 71.3159V5.6841C78 4.17658 77.3934 2.73081 76.3136 1.66483C75.2337 0.598859 73.7692 0 72.2421 0ZM23.2483 65.5944H11.5213V28.8215H23.2483V65.5944ZM17.3767 23.7256C16.0464 23.7182 14.7482 23.322 13.6459 22.5869C12.5435 21.8519 11.6865 20.811 11.1829 19.5955C10.6792 18.3801 10.5516 17.0446 10.8161 15.7576C11.0806 14.4706 11.7254 13.2898 12.669 12.3642C13.6127 11.4386 14.8129 10.8097 16.1183 10.5569C17.4236 10.3041 18.7756 10.4386 20.0036 10.9436C21.2316 11.4485 22.2805 12.3013 23.018 13.3942C23.7555 14.4871 24.1486 15.7712 24.1475 17.0844C24.16 17.9636 23.9932 18.8362 23.6568 19.6504C23.3204 20.4646 22.8214 21.2036 22.1896 21.8233C21.5578 22.443 20.806 22.9309 19.9791 23.2577C19.1522 23.5845 18.2672 23.7437 17.3767 23.7256ZM66.4733 65.6265H54.7517V45.5369C54.7517 39.6122 52.2004 37.7835 48.9071 37.7835C45.4296 37.7835 42.0171 40.3715 42.0171 45.6867V65.6265H30.29V28.8483H41.5675V33.9442H41.7192C42.8513 31.6823 46.8163 27.8163 52.8667 27.8163C59.41 27.8163 66.4788 31.6502 66.4788 42.8794L66.4733 65.6265Z" fill="white"/>
</svg>
